<svg width="166" height="28" viewBox="0 0 166 28" fill="none" xmlns="http://www.w3.org/2000/svg">
<path d="M12.0426 3.17315C12.3287 2.22495 13.6713 2.22495 13.9574 3.17314L15.7041 8.96261C15.8315 9.38484 16.2205 9.67376 16.6615 9.67376H22.4629C23.4136 9.67376 23.8279 10.8755 23.0791 11.4613L18.2613 15.2309C17.9365 15.4851 17.801 15.9125 17.9201 16.3074L19.7298 22.3055C20.0118 23.24 18.925 23.9834 18.1562 23.3819L13.6162 19.8297C13.2542 19.5464 12.7458 19.5464 12.3838 19.8297L7.84379 23.3819C7.07502 23.9834 5.98824 23.24 6.27019 22.3055L8.07989 16.3074C8.19902 15.9125 8.06354 15.4851 7.73874 15.2309L2.92091 11.4613C2.17216 10.8755 2.58643 9.67376 3.53713 9.67376H9.33852C9.77954 9.67376 10.1685 9.38484 10.2959 8.96261L12.0426 3.17315Z" fill="#070707"/>
<path d="M47.0426 3.17315C47.3287 2.22495 48.6713 2.22495 48.9574 3.17314L50.7041 8.96261C50.8315 9.38484 51.2205 9.67376 51.6615 9.67376H57.4629C58.4136 9.67376 58.8279 10.8755 58.0791 11.4613L53.2613 15.2309C52.9365 15.4851 52.801 15.9125 52.9201 16.3074L54.7298 22.3055C55.0118 23.24 53.925 23.9834 53.1562 23.3819L48.6162 19.8297C48.2542 19.5464 47.7458 19.5464 47.3838 19.8297L42.8438 23.3819C42.075 23.9834 40.9882 23.24 41.2702 22.3055L43.0799 16.3074C43.199 15.9125 43.0635 15.4851 42.7387 15.2309L37.9209 11.4613C37.1722 10.8755 37.5864 9.67376 38.5371 9.67376H44.3385C44.7795 9.67376 45.1685 9.38484 45.2959 8.96261L47.0426 3.17315Z" fill="#070707"/>
<path d="M82.0426 3.17315C82.3287 2.22495 83.6713 2.22495 83.9574 3.17314L85.7041 8.96261C85.8315 9.38484 86.2205 9.67376 86.6615 9.67376H92.4629C93.4136 9.67376 93.8279 10.8755 93.0791 11.4613L88.2613 15.2309C87.9365 15.4851 87.801 15.9125 87.9201 16.3074L89.7298 22.3055C90.0118 23.24 88.925 23.9834 88.1562 23.3819L83.6162 19.8297C83.2542 19.5464 82.7458 19.5464 82.3838 19.8297L77.8438 23.3819C77.075 23.9834 75.9882 23.24 76.2702 22.3055L78.0799 16.3074C78.199 15.9125 78.0635 15.4851 77.7387 15.2309L72.9209 11.4613C72.1722 10.8755 72.5864 9.67376 73.5371 9.67376H79.3385C79.7795 9.67376 80.1685 9.38484 80.2959 8.96261L82.0426 3.17315Z" fill="#070707"/>
<path d="M117.043 3.17315C117.329 2.22495 118.671 2.22495 118.957 3.17314L120.704 8.96261C120.832 9.38484 121.22 9.67376 121.662 9.67376H127.463C128.414 9.67376 128.828 10.8755 128.079 11.4613L123.261 15.2309C122.936 15.4851 122.801 15.9125 122.92 16.3074L124.73 22.3055C125.012 23.24 123.925 23.9834 123.156 23.3819L118.616 19.8297C118.254 19.5464 117.746 19.5464 117.384 19.8297L112.844 23.3819C112.075 23.9834 110.988 23.24 111.27 22.3055L113.08 16.3074C113.199 15.9125 113.064 15.4851 112.739 15.2309L107.921 11.4613C107.172 10.8755 107.586 9.67376 108.537 9.67376H114.339C114.78 9.67376 115.168 9.38484 115.296 8.96261L117.043 3.17315Z" fill="#070707"/>
<path d="M152.043 3.17315C152.329 2.22495 153.671 2.22495 153.957 3.17314L155.704 8.96261C155.832 9.38484 156.22 9.67376 156.662 9.67376H162.463C163.414 9.67376 163.828 10.8755 163.079 11.4613L158.261 15.2309C157.936 15.4851 157.801 15.9125 157.92 16.3074L159.73 22.3055C160.012 23.24 158.925 23.9834 158.156 23.3819L153.616 19.8297C153.254 19.5464 152.746 19.5464 152.384 19.8297L147.844 23.3819C147.075 23.9834 145.988 23.24 146.27 22.3055L148.08 16.3074C148.199 15.9125 148.064 15.4851 147.739 15.2309L142.921 11.4613C142.172 10.8755 142.586 9.67376 143.537 9.67376H149.339C149.78 9.67376 150.168 9.38484 150.296 8.96261L152.043 3.17315Z" fill="#E5E5E5"/>
</svg>
