<svg width="45" height="45" viewBox="0 0 45 45" fill="none" xmlns="http://www.w3.org/2000/svg">
<g clip-path="url(#clip0_12_160)">
<path d="M38.25 0H6.75C3.11524 0 0 2.50161 0 6.13636V38.8636C0 42.4984 3.11524 45 6.75 45H38.25C41.8848 45 45 42.4984 45 38.8636V6.13636C45 2.50161 41.8848 0 38.25 0ZM42.75 38.8636C42.75 41.0444 40.4308 41.9318 38.25 41.9318H6.75C4.56921 41.9318 2.25 41.0444 2.25 38.8636V6.13636C2.25 3.95558 4.56921 3.06818 6.75 3.06818H38.25C40.4308 3.06818 42.75 3.95558 42.75 6.13636V38.8636Z" fill="#070707"/>
<path d="M38.25 0H6.75C3.11524 0 0 2.50161 0 6.13636V38.8636C0 42.4984 3.11524 45 6.75 45H38.25C41.8848 45 45 42.4984 45 38.8636V6.13636C45 2.50161 41.8848 0 38.25 0ZM42.75 38.8636C42.75 41.0444 40.4308 41.9318 38.25 41.9318H6.75C4.56921 41.9318 2.25 41.0444 2.25 38.8636V6.13636C2.25 3.95558 4.56921 3.06818 6.75 3.06818H38.25C40.4308 3.06818 42.75 3.95558 42.75 6.13636V38.8636Z" stroke="#070707" stroke-width="0.5"/>
<path d="M21.375 18.409C21.375 15.5087 18.7277 13.2954 15.75 13.2954H7.875V31.7045H15.75C18.7277 31.7045 21.375 29.4913 21.375 26.5909C21.375 25.0212 20.2486 23.4646 19.125 22.5C20.2486 21.5353 21.375 19.9788 21.375 18.409ZM19.125 26.5909C19.125 28.0411 17.2389 28.6363 15.75 28.6363H10.125V23.5227H15.75C17.2389 23.5227 19.125 25.1407 19.125 26.5909ZM10.125 21.4772V16.3636H15.75C17.2389 16.3636 19.125 16.9589 19.125 18.409C19.125 19.8592 17.2389 21.4772 15.75 21.4772H10.125Z" fill="#070707"/>
<path d="M21.375 18.409C21.375 15.5087 18.7277 13.2954 15.75 13.2954H7.875V31.7045H15.75C18.7277 31.7045 21.375 29.4913 21.375 26.5909C21.375 25.0212 20.2486 23.4646 19.125 22.5C20.2486 21.5353 21.375 19.9788 21.375 18.409ZM19.125 26.5909C19.125 28.0411 17.2389 28.6363 15.75 28.6363H10.125V23.5227H15.75C17.2389 23.5227 19.125 25.1407 19.125 26.5909ZM10.125 21.4772V16.3636H15.75C17.2389 16.3636 19.125 16.9589 19.125 18.409C19.125 19.8592 17.2389 21.4772 15.75 21.4772H10.125Z" stroke="#070707" stroke-width="0.5"/>
<path d="M30.375 18.4092C26.653 18.4092 23.625 21.9027 23.625 25.5683C23.625 29.2339 26.653 31.7046 30.375 31.7046C32.7772 31.7046 34.7962 30.6862 36 28.6365L33.75 26.591C33.0272 27.8219 31.8164 28.6365 30.375 28.6365C28.6147 28.6365 27.5572 28.1387 27 26.591H37.125V25.5683C37.125 21.9027 34.097 18.4092 30.375 18.4092ZM27 23.5228C27.5572 21.9751 28.6147 21.4774 30.375 21.4774C32.1353 21.4774 33.1928 21.9751 33.75 23.5228H27Z" fill="#070707"/>
<path d="M30.375 18.4092C26.653 18.4092 23.625 21.9027 23.625 25.5683C23.625 29.2339 26.653 31.7046 30.375 31.7046C32.7772 31.7046 34.7962 30.6862 36 28.6365L33.75 26.591C33.0272 27.8219 31.8164 28.6365 30.375 28.6365C28.6147 28.6365 27.5572 28.1387 27 26.591H37.125V25.5683C37.125 21.9027 34.097 18.4092 30.375 18.4092ZM27 23.5228C27.5572 21.9751 28.6147 21.4774 30.375 21.4774C32.1353 21.4774 33.1928 21.9751 33.75 23.5228H27Z" stroke="#070707" stroke-width="0.5"/>
<path d="M24.75 13.2954H34.875V16.3636H24.75V13.2954Z" fill="#070707"/>
<path d="M24.75 13.2954H34.875V16.3636H24.75V13.2954Z" stroke="#070707" stroke-width="0.5"/>
</g>
<defs>
<clipPath id="clip0_12_160">
<rect width="45" height="45" fill="white"/>
</clipPath>
</defs>
</svg>
