<svg width="45" height="45" viewBox="0 0 45 45" fill="none" xmlns="http://www.w3.org/2000/svg">
<path d="M23.0769 0C10.6803 0 0 10.1034 0 22.5C0 34.8966 10.6803 45 23.0769 45C35.4736 45 45 34.8966 45 22.5C45 10.1034 35.4736 0 23.0769 0ZM23.0769 3.06818C27.5986 3.06818 31.3594 4.53049 34.6154 7.15909C32.9603 9.19274 29.3257 12.4684 24.2308 14.3182C21.4615 9.30977 20.0733 6.2111 18.4615 4.09091C19.9219 3.73394 21.4976 3.06818 23.0769 3.06818ZM15 5.11364C16.3522 6.85522 17.8594 10.2135 20.7692 15.3409C13.2945 17.2988 7.42788 17.4729 4.61538 17.3864C6.11899 11.9777 9.98077 7.42854 15 5.11364ZM36.9231 10.2273C39.8005 13.5698 41.5385 17.7404 41.5385 22.5C41.5385 23.2139 41.6142 23.8531 41.5385 24.5455C40.9111 24.4589 40.0312 24.6104 39.2308 24.5455C36.5481 24.3399 33.8401 23.9721 30 24.5455C28.994 21.9385 27.6743 19.6472 26.5385 17.3864C31.8822 15.3419 34.9651 12.5638 36.9231 10.2273ZM23.0769 18.4091C24.1695 20.5509 25.5541 23.1018 26.5385 25.5682C21.9844 26.9203 17.0264 29.8607 13.8462 32.7273C12.1478 34.2417 11.4231 35.6824 10.3846 36.8182C6.39303 33.3242 3.46154 28.2224 3.46154 22.5C3.46154 21.9267 3.41827 21.0062 3.46154 20.4545C5.92788 20.5519 14.1202 20.8971 23.0769 18.4091ZM34.6154 27.6136C37.2764 27.5163 38.7187 27.4297 40.3846 27.6136C39.1298 31.8432 37.0204 35.4178 33.4615 37.8409C32.8882 34.282 32.2248 30.8372 31.1538 27.6136C32.3978 27.4514 33.4687 27.6677 34.6154 27.6136ZM27.6923 28.6364C28.9255 32.1953 29.4483 35.9056 30 39.8864C27.6959 40.8599 24.595 41.9318 21.9231 41.9318C18.3642 41.9318 15.5373 40.5403 12.6923 38.8636C13.655 37.836 14.6827 37.1043 16.1538 35.7955C19.2151 33.0479 23.9279 29.7073 27.6923 28.6364Z" fill="#070707"/>
<path d="M39.1915 25.0439C39.612 25.0779 40.0469 25.0571 40.426 25.039L40.4732 25.0368C40.8837 25.0173 41.2112 25.0051 41.4701 25.0408L41.9796 25.111L42.0355 24.5998C42.077 24.2199 42.0764 23.8605 42.0667 23.5167C42.0633 23.3988 42.0591 23.2854 42.0549 23.1737C42.0466 22.9496 42.0385 22.7326 42.0385 22.5C42.0385 17.6114 40.2512 13.327 37.302 9.90107L36.9179 9.45492L36.5398 9.90613C34.6291 12.1863 31.6139 14.9092 26.3598 16.9194L25.8435 17.1169L26.0917 17.6108C26.3939 18.2123 26.7059 18.8105 27.0198 19.4122C27.9026 21.1044 28.8 22.8246 29.5335 24.7255L29.6777 25.0991L30.0738 25.04C33.3392 24.5525 35.7591 24.7568 38.104 24.9549C38.4673 24.9856 38.8289 25.0161 39.1915 25.0439ZM39.1915 25.0439C39.1911 25.0439 39.1907 25.0438 39.1904 25.0438L39.2308 24.5455M39.1915 25.0439C39.1918 25.0439 39.1922 25.044 39.1926 25.044L39.2308 24.5455M39.2308 24.5455C38.8719 24.518 38.5126 24.4876 38.1502 24.4569C35.8033 24.2584 33.3264 24.0488 30 24.5455C29.2554 22.616 28.3391 20.8595 27.4526 19.1603C27.2204 18.7152 26.9902 18.274 26.7657 17.8347C26.7495 17.8409 26.7333 17.8471 26.7171 17.8534L26.5385 17.3864L26.9852 17.1619C26.9922 17.1757 26.9991 17.1895 27.0061 17.2033C31.7804 15.2915 34.6852 12.793 36.594 10.6116C36.5774 10.5922 36.5608 10.5728 36.5441 10.5535L36.9231 10.2273L37.3063 10.5484C37.2875 10.5709 37.2685 10.5934 37.2495 10.616C39.9314 13.891 41.5385 17.9232 41.5385 22.5C41.5385 22.7417 41.5471 22.9748 41.5557 23.2043C41.5662 23.487 41.5765 23.7643 41.5702 24.0453C41.5824 24.0469 41.5946 24.0485 41.6068 24.0501L41.5385 24.5455L41.4021 24.5305C41.1079 24.506 40.7685 24.5221 40.413 24.5391C40.0254 24.5575 39.6188 24.5769 39.2308 24.5455ZM35.0032 7.4747L35.32 7.08536L34.9295 6.77005C31.5893 4.07351 27.7189 2.56818 23.0769 2.56818C22.2207 2.56818 21.3814 2.7483 20.5931 2.9633C20.2412 3.05926 19.9142 3.15734 19.5978 3.25222C19.1716 3.38006 18.7647 3.50207 18.3428 3.60521L17.6019 3.78632L18.0635 4.3935C18.8434 5.41946 19.5776 6.69344 20.4716 8.35805C20.7642 8.90276 21.074 9.4895 21.4074 10.121C22.0866 11.4072 22.8638 12.8792 23.7932 14.5601L23.9999 14.9339L24.4014 14.7882C29.595 12.9026 33.301 9.5663 35.0032 7.4747ZM15.3949 4.80701L15.1513 4.49323L14.7906 4.6596C9.6365 7.03671 5.67617 11.7038 4.13365 17.2524L3.96294 17.8665L4.60001 17.8861C7.45179 17.9739 13.3672 17.7967 20.8959 15.8246L21.5251 15.6598L21.2041 15.0941C20.0561 13.0713 19.1281 11.3266 18.3388 9.84247C18.1304 9.45078 17.9318 9.07724 17.7412 8.72152C16.8358 7.03092 16.1015 5.71708 15.3949 4.80701ZM23.5223 18.1819L23.3367 17.818L22.9431 17.9273C14.1285 20.3758 6.05416 20.0566 3.53429 19.957L3.48126 19.9549L3.00068 19.936L2.96307 20.4154C2.93145 20.8186 2.94335 21.421 2.95333 21.9266C2.95761 22.1433 2.96154 22.3422 2.96154 22.5C2.96154 28.3969 5.98046 33.6276 10.0553 37.1944L10.4235 37.5167L10.7536 37.1556C11.1567 36.7147 11.5201 36.2228 11.888 35.7248C12.0131 35.5555 12.1388 35.3854 12.2666 35.2164C12.7801 34.5379 13.3637 33.8274 14.1789 33.1005L14.1809 33.0987C17.3104 30.2779 22.2036 27.3768 26.6808 26.0475L27.2059 25.8916L27.0028 25.3828C26.1899 23.346 25.1063 21.2505 24.1461 19.3935C23.9305 18.9765 23.7211 18.5715 23.5223 18.1819ZM34.5971 27.1139L34.5918 27.1142C34.1436 27.1353 33.7104 27.1129 33.2443 27.0887C33.1461 27.0836 33.0465 27.0785 32.945 27.0736C32.3718 27.0463 31.7568 27.0308 31.0892 27.1178L30.4883 27.1962L30.6793 27.7713C31.7372 30.9554 32.3956 34.3679 32.9679 37.9204L33.093 38.6967L33.7429 38.2542C37.4249 35.7473 39.5874 32.0586 40.864 27.7558L41.0341 27.1823L40.4395 27.1167C38.9231 26.9493 37.582 27.0005 35.459 27.0815C35.1853 27.092 34.8987 27.1029 34.5971 27.1139ZM28.1647 28.4727L28.01 28.0261L27.5555 28.1554C23.6796 29.2581 18.8982 32.6607 15.8208 35.4225C15.2831 35.9009 14.8083 36.2988 14.368 36.6678C14.2111 36.7992 14.0587 36.927 13.9094 37.0534C13.3442 37.5318 12.8289 37.9865 12.3274 38.5218L11.9006 38.9774L12.4384 39.2944C15.2996 40.9806 18.224 42.4318 21.9231 42.4318C24.7021 42.4318 27.8821 41.3241 30.1946 40.3469L30.5479 40.1977L30.4953 39.8177C29.9447 35.8448 29.4166 32.0856 28.1647 28.4727ZM0.5 22.5C0.5 10.3958 10.9399 0.5 23.0769 0.5C35.1806 0.5 44.5 10.3624 44.5 22.5C44.5 34.6376 35.1806 44.5 23.0769 44.5C10.9399 44.5 0.5 34.6042 0.5 22.5Z" stroke="#070707"/>
</svg>
