<svg width="89" height="97" viewBox="0 0 89 97" fill="none" xmlns="http://www.w3.org/2000/svg">
<path d="M4 4H86V93H4V4Z" fill="url(#paint0_radial_12_206)"/>
<path d="M4 4H85V93H4V4ZM0 97H89V0H0V97ZM63 47C64.8891 47 65.8218 47.0797 66 47C66 46.7012 66 46.1992 66 46C66 43.7687 64.8494 40 61 40C57.4357 40 56.3742 43.3144 56 47H63V47ZM55 52C55.0713 57.5981 58.3506 62 64 62C66.192 62 68.0396 61.9363 70 61C70.2673 60.8805 70 60.6215 70 61V66C70 66.4184 70.2673 66.7809 70 67C68.0396 68.0758 65.0296 68 62 68C52.2161 68 49 59.9848 49 51C49 41.2183 53.0338 34 61 34C69.0909 34 72 40.8242 72 47C72 48.9922 72.196 51.2031 72 52C71.9287 52.3387 71.303 51.9203 71 52C70.2515 52.1195 68.2613 53 65 53H55V52V52ZM36 48C34.9664 43.398 31.9267 33.861 31 29V29C30.2159 33.841 28.5148 41.5652 27 48H36ZM25 55L22 67C21.9287 67.3387 22.3742 68 22 68H16C15.6258 68 15.9287 67.498 16 67L26 26C26.1782 25.2629 26.9287 25.0719 27 23C27 22.7012 26.804 22 27 22H35C35.2673 22 34.9287 22.6613 35 23L47 67C47.0713 67.3387 47.303 68 47 68H41C40.697 68 40.0713 67.2988 40 67L37 55H25Z" fill="#D8A1FF"/>
<defs>
<radialGradient id="paint0_radial_12_206" cx="0" cy="0" r="1" gradientUnits="userSpaceOnUse" gradientTransform="translate(31.0314 23.9537) scale(62.3227 67.3143)">
<stop stop-color="#442F55" stop-opacity="0.98"/>
<stop offset="1" stop-color="#12002C"/>
</radialGradient>
</defs>
</svg>
