<svg width="58" height="98" viewBox="0 0 58 98" fill="none" xmlns="http://www.w3.org/2000/svg">
<g clip-path="url(#clip0_12_215)">
<path d="M15 98C23.0061 98 29 91.1104 29 82V65H15C6.99387 65 0 72.8896 0 82C0 91.1104 6.99387 98 15 98Z" fill="#0ACF83"/>
<path d="M0 49C0 39.8952 6.99387 33 15 33H29V66H15C6.99387 65.9798 0 58.1048 0 49Z" fill="#A259FF"/>
<path d="M0 16C0 6.89516 6.99387 0 15 0H29V33H15C6.99387 33 0 25.1048 0 16Z" fill="#F24E1E"/>
<path d="M29 0H44C52.0061 0 58 7.88957 58 17C58 26.1104 52.0061 33 44 33H29V0Z" fill="#FF7262"/>
<path d="M58 50C58 59.1104 52.0061 66 44 66C35.9939 66 29 59.1104 29 50C29 40.8896 35.9939 33 44 33C52.0061 33 58 40.8896 58 50Z" fill="#1ABCFE"/>
</g>
<defs>
<clipPath id="clip0_12_215">
<rect width="58" height="98" fill="white"/>
</clipPath>
</defs>
</svg>
