<svg width="89" height="97" viewBox="0 0 89 97" fill="none" xmlns="http://www.w3.org/2000/svg">
<path d="M4 4H86V93H4V4Z" fill="url(#paint0_radial_12_192)"/>
<path d="M4 4H85V93H4V4ZM0 97H89V0H0V97ZM58 35C58 34.6613 58.6614 34 59 34H65C65.303 34 65 34.6215 65 35V67C65 67.3387 65.3742 68 65 68H59C58.6258 68 58 67.3387 58 67V35V35V35ZM58 25C58 22.3504 59.8971 21 62 21C64.2633 21 65 22.4699 65 25C65 27.7293 64.2633 29 62 29C59.8614 29.0199 58 27.7492 58 25ZM41 48C39.9664 43.398 37.9267 33.861 37 29V29C36.2159 33.841 33.5505 41.5652 32 48H41ZM31 55L28 67C27.9287 67.3387 27.3742 68 27 68H22C21.6258 68 21.9287 67.498 22 67L32 26C32.1782 25.2629 32.9287 25.032 33 23C33 22.7012 32.804 22 33 22H41C41.2673 22 40.9287 22.6613 41 23L53 67C53.0713 67.3387 53.303 68 53 68H46C45.697 68 46.0713 67.2988 46 67L43 55H31Z" fill="#FF7F18"/>
<defs>
<radialGradient id="paint0_radial_12_192" cx="0" cy="0" r="1" gradientUnits="userSpaceOnUse" gradientTransform="translate(31.0336 23.9713) scale(62.3227 67.3143)">
<stop stop-color="#423325" stop-opacity="0.98"/>
<stop offset="1" stop-color="#1C0A00"/>
</radialGradient>
</defs>
</svg>
