<svg width="45" height="45" viewBox="0 0 45 45" fill="none" xmlns="http://www.w3.org/2000/svg">
<path d="M12.6923 0C5.4988 0 0 6.10367 0 13.2955V31.7045C0 38.8855 5.4988 45 12.6923 45H32.3077C39.4904 45 45 38.8963 45 31.7045V13.2955C45 6.10367 39.5012 0 32.3077 0H12.6923V0ZM12.6923 3.06818H32.3077C37.6298 3.06818 41.5385 7.9638 41.5385 13.2955V31.7045C41.5385 37.0362 37.619 41.9318 32.3077 41.9318H12.6923C7.35938 41.9318 3.46154 37.0146 3.46154 31.7045V13.2955C3.47236 7.95299 7.37019 3.06818 12.6923 3.06818ZM36.9231 7.15909C35.9603 7.15909 34.6154 7.21931 34.6154 8.18182C34.6154 9.14433 35.9603 10.2273 36.9231 10.2273C37.8858 10.2273 38.0769 9.14433 38.0769 8.18182C38.0769 7.21931 37.8858 7.15909 36.9231 7.15909ZM23.0769 10.2273C16.4135 10.2273 10.3846 15.8381 10.3846 22.5C10.3846 29.1619 16.4135 34.7727 23.0769 34.7727C29.7404 34.7727 34.6154 29.1619 34.6154 22.5C34.6154 15.8381 29.7404 10.2273 23.0769 10.2273ZM23.0769 14.3182C27.8798 14.3182 31.1538 17.6983 31.1538 22.5C31.1538 27.3017 27.8798 30.6818 23.0769 30.6818C18.274 30.6818 13.8462 27.3017 13.8462 22.5C13.8462 17.6983 18.274 14.3182 23.0769 14.3182Z" fill="#070707"/>
<path d="M2.96154 13.2944V13.2955V31.7045C2.96154 37.2213 7.01857 42.4318 12.6923 42.4318H32.3077C37.9585 42.4318 42.0385 37.2444 42.0385 31.7045V13.2955C42.0385 7.75598 37.9696 2.56818 32.3077 2.56818H12.6923C7.02989 2.56818 2.97277 7.74556 2.96154 13.2944ZM0.5 13.2955C0.5 6.34905 5.80474 0.5 12.6923 0.5H32.3077C39.1953 0.5 44.5 6.34905 44.5 13.2955V31.7045C44.5 38.6507 39.1847 44.5 32.3077 44.5H12.6923C5.80499 44.5 0.5 38.6404 0.5 31.7045V13.2955ZM35.1154 8.18182C35.1154 8.07252 35.1477 8.01594 35.194 7.96968C35.2539 7.90975 35.3649 7.84387 35.5503 7.78889C35.9282 7.67687 36.4361 7.65909 36.9231 7.65909C37.1667 7.65909 37.3273 7.66348 37.4427 7.67905C37.4902 7.68546 37.5196 7.69259 37.5364 7.69768C37.5389 7.70549 37.5419 7.716 37.5451 7.72977C37.5644 7.81221 37.5769 7.94876 37.5769 8.18182C37.5769 8.64615 37.5283 9.07344 37.4017 9.368C37.341 9.50906 37.2729 9.59485 37.2069 9.64501C37.1473 9.6903 37.0632 9.72727 36.9231 9.72727C36.6032 9.72727 36.1377 9.53199 35.7335 9.18573C35.322 8.83332 35.1154 8.44832 35.1154 8.18182ZM37.5287 7.67821C37.5287 7.67816 37.529 7.67867 37.5296 7.67985L37.5287 7.67821ZM10.8846 22.5C10.8846 16.1356 16.6678 10.7273 23.0769 10.7273C29.4247 10.7273 34.1154 16.073 34.1154 22.5C34.1154 28.927 29.4247 34.2727 23.0769 34.2727C16.6678 34.2727 10.8846 28.8644 10.8846 22.5ZM31.6538 22.5C31.6538 19.9833 30.794 17.8072 29.2733 16.2582C27.7516 14.7082 25.5995 13.8182 23.0769 13.8182C18.0792 13.8182 13.3462 17.3473 13.3462 22.5C13.3462 27.6527 18.0792 31.1818 23.0769 31.1818C25.5995 31.1818 27.7516 30.2918 29.2733 28.7418C30.794 27.1928 31.6538 25.0167 31.6538 22.5Z" stroke="#070707"/>
</svg>
