<svg width="89" height="97" viewBox="0 0 89 97" fill="none" xmlns="http://www.w3.org/2000/svg">
<path d="M4 4H86V93H4V4Z" fill="url(#paint0_radial_12_179)"/>
<path d="M4 4H85V93H4V4ZM0 97H89V0H0V97ZM60 40C57.0749 40 56 41.6245 56 43C56 44.4951 57.0583 45.7275 61 48C66.8144 51.1496 68 53.5746 68 58C68 64.6381 64.1176 68 58 68C54.7717 68 51.5874 68.0366 50 67C49.7325 66.8804 50 66.3189 50 66V60C50 59.5814 49.7325 59.8007 50 60C52.3365 61.6944 55.5565 62 58 62C60.9251 62 62 60.8539 62 59C62 57.5049 60.7455 56.1728 57 54C51.7385 51.1893 50 47.7842 50 43C50 37.6576 53.5078 34 60 34C63.1926 34 65.7872 34.382 67 35C67.3032 35.1993 67 35.701 67 36V41C67 41.3389 66.3745 42.1196 66 42C64.3591 40.8438 62.4078 40 60 40ZM28 45C28.8561 45.0797 29.5196 45 31 45C35.3341 45 40 43.5982 40 37C40 31.7374 36.9405 29 32 29C30.5196 29 28.6778 28.9601 28 29V45ZM22 23C22 22.701 21.6968 22 22 22C24.3721 21.8804 28.3437 22 32 22C42.2733 22 46 27.9665 46 36C46 46.5253 39.3828 51 31 51C29.591 51 28.9988 51 28 51V67C28 67.3389 28.3389 68 28 68H22C21.6968 68 22 67.3788 22 67V23Z" fill="#31C5F0"/>
<defs>
<radialGradient id="paint0_radial_12_179" cx="0" cy="0" r="1" gradientUnits="userSpaceOnUse" gradientTransform="translate(31.0147 23.9672) scale(62.3108 67.3174)">
<stop stop-color="#34364E" stop-opacity="0.98"/>
<stop offset="1" stop-color="#0C0824"/>
</radialGradient>
</defs>
</svg>
